<mxfile host="65bd71144e">
    <diagram id="f63h3hfk-DI_PFLd-nH0" name="Page-1">
        <mxGraphModel dx="1139" dy="939" grid="1" gridSize="10" guides="1" tooltips="1" connect="1" arrows="1" fold="1" page="1" pageScale="1" pageWidth="1700" pageHeight="1100" math="0" shadow="0">
            <root>
                <mxCell id="0"/>
                <mxCell id="1" parent="0"/>
                <mxCell id="7WD_b7WuQylbHmAeUIXa-3" value="GET /drive/trash" style="edgeStyle=orthogonalEdgeStyle;rounded=0;orthogonalLoop=1;jettySize=auto;html=1;exitX=0;exitY=1;exitDx=0;exitDy=0;startArrow=classic;startFill=1;endArrow=none;endFill=0;" parent="1" source="7WD_b7WuQylbHmAeUIXa-1" edge="1">
                    <mxGeometry x="0.6" relative="1" as="geometry">
                        <mxPoint x="140" y="360" as="targetPoint"/>
                        <Array as="points">
                            <mxPoint x="220" y="360"/>
                            <mxPoint x="220" y="360"/>
                        </Array>
                        <mxPoint as="offset"/>
                    </mxGeometry>
                </mxCell>
                <mxCell id="7WD_b7WuQylbHmAeUIXa-8" value="Busca ficheiros do utilizador" style="edgeStyle=orthogonalEdgeStyle;rounded=0;orthogonalLoop=1;jettySize=auto;html=1;startArrow=none;startFill=0;endArrow=classic;endFill=1;" parent="1" source="7WD_b7WuQylbHmAeUIXa-1" target="7WD_b7WuQylbHmAeUIXa-7" edge="1">
                    <mxGeometry relative="1" as="geometry"/>
                </mxCell>
                <mxCell id="7WD_b7WuQylbHmAeUIXa-1" value="&lt;div&gt;&lt;b&gt;Controller&lt;/b&gt;&lt;/div&gt;&lt;div&gt;Controllers/Drive.php&lt;br&gt;&lt;/div&gt;" style="rounded=0;whiteSpace=wrap;html=1;fillColor=#dae8fc;strokeColor=#6c8ebf;" parent="1" vertex="1">
                    <mxGeometry x="240" y="300" width="120" height="60" as="geometry"/>
                </mxCell>
                <mxCell id="7WD_b7WuQylbHmAeUIXa-4" value="GET /drive/shared" style="edgeStyle=orthogonalEdgeStyle;rounded=0;orthogonalLoop=1;jettySize=auto;html=1;exitX=0;exitY=1;exitDx=0;exitDy=0;startArrow=classic;startFill=1;endArrow=none;endFill=0;" parent="1" edge="1">
                    <mxGeometry x="0.6" relative="1" as="geometry">
                        <mxPoint x="140" y="340" as="targetPoint"/>
                        <mxPoint x="240" y="340" as="sourcePoint"/>
                        <Array as="points">
                            <mxPoint x="220" y="340"/>
                            <mxPoint x="220" y="340"/>
                        </Array>
                        <mxPoint as="offset"/>
                    </mxGeometry>
                </mxCell>
                <mxCell id="7WD_b7WuQylbHmAeUIXa-5" value="GET /drive/favorites" style="edgeStyle=orthogonalEdgeStyle;rounded=0;orthogonalLoop=1;jettySize=auto;html=1;exitX=0;exitY=1;exitDx=0;exitDy=0;startArrow=classic;startFill=1;endArrow=none;endFill=0;" parent="1" edge="1">
                    <mxGeometry x="0.6" relative="1" as="geometry">
                        <mxPoint x="140" y="320" as="targetPoint"/>
                        <mxPoint x="240" y="320" as="sourcePoint"/>
                        <Array as="points">
                            <mxPoint x="220" y="320"/>
                            <mxPoint x="220" y="320"/>
                        </Array>
                        <mxPoint as="offset"/>
                    </mxGeometry>
                </mxCell>
                <mxCell id="7WD_b7WuQylbHmAeUIXa-6" value="GET /drive/files" style="edgeStyle=orthogonalEdgeStyle;rounded=0;orthogonalLoop=1;jettySize=auto;html=1;exitX=0;exitY=1;exitDx=0;exitDy=0;startArrow=classic;startFill=1;endArrow=none;endFill=0;" parent="1" edge="1">
                    <mxGeometry x="0.6" relative="1" as="geometry">
                        <mxPoint x="140" y="300" as="targetPoint"/>
                        <mxPoint x="240" y="300" as="sourcePoint"/>
                        <Array as="points">
                            <mxPoint x="190" y="300"/>
                            <mxPoint x="190" y="300"/>
                        </Array>
                        <mxPoint as="offset"/>
                    </mxGeometry>
                </mxCell>
                <mxCell id="7WD_b7WuQylbHmAeUIXa-10" value="Ficheiros" style="edgeStyle=orthogonalEdgeStyle;rounded=0;orthogonalLoop=1;jettySize=auto;html=1;startArrow=none;startFill=0;endArrow=classic;endFill=1;" parent="1" source="7WD_b7WuQylbHmAeUIXa-7" target="7WD_b7WuQylbHmAeUIXa-9" edge="1">
                    <mxGeometry y="10" relative="1" as="geometry">
                        <mxPoint as="offset"/>
                    </mxGeometry>
                </mxCell>
                <mxCell id="7WD_b7WuQylbHmAeUIXa-16" value="&lt;div&gt;Busca ficheiros&lt;/div&gt;" style="edgeStyle=orthogonalEdgeStyle;rounded=0;orthogonalLoop=1;jettySize=auto;html=1;startArrow=none;startFill=0;endArrow=classic;endFill=1;" parent="1" source="7WD_b7WuQylbHmAeUIXa-7" target="7WD_b7WuQylbHmAeUIXa-14" edge="1">
                    <mxGeometry relative="1" as="geometry"/>
                </mxCell>
                <mxCell id="7WD_b7WuQylbHmAeUIXa-7" value="&lt;div&gt;&lt;b&gt;Model&lt;/b&gt;&lt;br&gt;&lt;/div&gt;&lt;div&gt;Models/File.php&lt;/div&gt;&lt;div&gt;Models/User.php&lt;/div&gt;&lt;div&gt;Models/Access.php&lt;br&gt;&lt;/div&gt;" style="rounded=0;whiteSpace=wrap;html=1;fillColor=#dae8fc;strokeColor=#6c8ebf;" parent="1" vertex="1">
                    <mxGeometry x="240" y="400" width="120" height="60" as="geometry"/>
                </mxCell>
                <mxCell id="7WD_b7WuQylbHmAeUIXa-12" style="edgeStyle=orthogonalEdgeStyle;rounded=0;orthogonalLoop=1;jettySize=auto;html=1;exitX=0.5;exitY=0;exitDx=0;exitDy=0;entryX=0.5;entryY=1;entryDx=0;entryDy=0;startArrow=none;startFill=0;endArrow=classic;endFill=1;" parent="1" source="7WD_b7WuQylbHmAeUIXa-9" target="7WD_b7WuQylbHmAeUIXa-11" edge="1">
                    <mxGeometry relative="1" as="geometry"/>
                </mxCell>
                <mxCell id="7WD_b7WuQylbHmAeUIXa-13" value="&lt;div&gt;Devolve a página construída &lt;br&gt;&lt;/div&gt;&lt;div&gt;a partir dos modelos recolhidos&lt;/div&gt;" style="edgeLabel;html=1;align=center;verticalAlign=middle;resizable=0;points=[];" parent="7WD_b7WuQylbHmAeUIXa-12" vertex="1" connectable="0">
                    <mxGeometry x="-0.2" y="1" relative="1" as="geometry">
                        <mxPoint x="1" as="offset"/>
                    </mxGeometry>
                </mxCell>
                <mxCell id="7WD_b7WuQylbHmAeUIXa-9" value="&lt;div&gt;&lt;b&gt;View&lt;/b&gt;&lt;br&gt;&lt;/div&gt;&lt;div&gt;Views/drive/files.php&lt;/div&gt;&lt;div&gt;Views/drive/favorites.php&lt;/div&gt;&lt;div&gt;Views/drive/shared.php&lt;/div&gt;&lt;div&gt;Views/drive/trash.php&lt;/div&gt;" style="rounded=0;whiteSpace=wrap;html=1;fillColor=#dae8fc;strokeColor=#6c8ebf;" parent="1" vertex="1">
                    <mxGeometry x="420" y="390" width="150" height="80" as="geometry"/>
                </mxCell>
                <mxCell id="7WD_b7WuQylbHmAeUIXa-11" value="Páginas de ficheiros" style="rounded=0;whiteSpace=wrap;html=1;fillColor=#d5e8d4;strokeColor=#82b366;" parent="1" vertex="1">
                    <mxGeometry x="435" y="190" width="120" height="60" as="geometry"/>
                </mxCell>
                <mxCell id="7WD_b7WuQylbHmAeUIXa-14" value="DB" style="shape=cylinder3;whiteSpace=wrap;html=1;boundedLbl=1;backgroundOutline=1;size=15;" parent="1" vertex="1">
                    <mxGeometry x="270" y="510" width="60" height="80" as="geometry"/>
                </mxCell>
                <mxCell id="7WD_b7WuQylbHmAeUIXa-19" value="&lt;div&gt;POST /drive/files&lt;/div&gt;&lt;div&gt;com dados do ficheiro&lt;br&gt;&lt;/div&gt;" style="edgeStyle=orthogonalEdgeStyle;rounded=0;orthogonalLoop=1;jettySize=auto;html=1;startArrow=none;startFill=0;endArrow=classic;endFill=1;" parent="1" source="7WD_b7WuQylbHmAeUIXa-17" target="7WD_b7WuQylbHmAeUIXa-18" edge="1">
                    <mxGeometry relative="1" as="geometry"/>
                </mxCell>
                <mxCell id="7WD_b7WuQylbHmAeUIXa-17" value="&lt;div&gt;Arrastar ficheiro&lt;/div&gt;&lt;div&gt;ou&lt;/div&gt;&lt;div&gt;Upload pelo botão +&lt;br&gt;&lt;/div&gt;" style="rounded=0;whiteSpace=wrap;html=1;fillColor=#d5e8d4;strokeColor=#82b366;" parent="1" vertex="1">
                    <mxGeometry x="650" y="190" width="120" height="60" as="geometry"/>
                </mxCell>
                <mxCell id="7WD_b7WuQylbHmAeUIXa-22" value="Verifica permissões e adiciona o ficheiro" style="edgeStyle=orthogonalEdgeStyle;rounded=0;orthogonalLoop=1;jettySize=auto;html=1;startArrow=none;startFill=0;endArrow=classic;endFill=1;" parent="1" source="7WD_b7WuQylbHmAeUIXa-18" target="7WD_b7WuQylbHmAeUIXa-20" edge="1">
                    <mxGeometry relative="1" as="geometry"/>
                </mxCell>
                <mxCell id="7WD_b7WuQylbHmAeUIXa-18" value="&lt;div&gt;&lt;b&gt;Controller&lt;/b&gt;&lt;/div&gt;&lt;div&gt;Controllers/Drive.php&lt;br&gt;&lt;/div&gt;" style="rounded=0;whiteSpace=wrap;html=1;fillColor=#dae8fc;strokeColor=#6c8ebf;" parent="1" vertex="1">
                    <mxGeometry x="650" y="300" width="120" height="60" as="geometry"/>
                </mxCell>
                <mxCell id="7WD_b7WuQylbHmAeUIXa-24" value="Insere o ficheiro" style="edgeStyle=orthogonalEdgeStyle;rounded=0;orthogonalLoop=1;jettySize=auto;html=1;startArrow=none;startFill=0;endArrow=classic;endFill=1;" parent="1" source="7WD_b7WuQylbHmAeUIXa-20" target="7WD_b7WuQylbHmAeUIXa-23" edge="1">
                    <mxGeometry relative="1" as="geometry"/>
                </mxCell>
                <mxCell id="7WD_b7WuQylbHmAeUIXa-25" style="edgeStyle=orthogonalEdgeStyle;rounded=0;orthogonalLoop=1;jettySize=auto;html=1;startArrow=none;startFill=0;endArrow=classic;endFill=1;entryX=1;entryY=0.5;entryDx=0;entryDy=0;" parent="1" source="7WD_b7WuQylbHmAeUIXa-20" target="7WD_b7WuQylbHmAeUIXa-17" edge="1">
                    <mxGeometry relative="1" as="geometry">
                        <mxPoint x="860" y="220" as="targetPoint"/>
                        <Array as="points">
                            <mxPoint x="830" y="430"/>
                            <mxPoint x="830" y="220"/>
                        </Array>
                    </mxGeometry>
                </mxCell>
                <mxCell id="7WD_b7WuQylbHmAeUIXa-26" value="&lt;div&gt;Devolve uma notificação de envio&lt;/div&gt;&lt;div&gt;ou um erro&lt;br&gt;&lt;/div&gt;" style="edgeLabel;html=1;align=center;verticalAlign=middle;resizable=0;points=[];" parent="7WD_b7WuQylbHmAeUIXa-25" vertex="1" connectable="0">
                    <mxGeometry x="0.0915" y="-3" relative="1" as="geometry">
                        <mxPoint x="37" y="10" as="offset"/>
                    </mxGeometry>
                </mxCell>
                <mxCell id="7WD_b7WuQylbHmAeUIXa-20" value="&lt;div&gt;&lt;b&gt;Model&lt;/b&gt;&lt;br&gt;&lt;/div&gt;&lt;div&gt;&lt;div&gt;Models/File.php&lt;/div&gt;&lt;div&gt;Models/User.php&lt;/div&gt;&lt;div&gt;Models/Access.php&lt;/div&gt;&lt;/div&gt;" style="rounded=0;whiteSpace=wrap;html=1;fillColor=#dae8fc;strokeColor=#6c8ebf;" parent="1" vertex="1">
                    <mxGeometry x="650" y="400" width="120" height="60" as="geometry"/>
                </mxCell>
                <mxCell id="7WD_b7WuQylbHmAeUIXa-23" value="DB" style="shape=cylinder3;whiteSpace=wrap;html=1;boundedLbl=1;backgroundOutline=1;size=15;" parent="1" vertex="1">
                    <mxGeometry x="680" y="510" width="60" height="80" as="geometry"/>
                </mxCell>
                <mxCell id="7WD_b7WuQylbHmAeUIXa-27" value="&lt;div&gt;PATCH /drive/files&lt;/div&gt;&lt;div&gt;com modificações&lt;br&gt;&lt;/div&gt;" style="edgeStyle=orthogonalEdgeStyle;rounded=0;orthogonalLoop=1;jettySize=auto;html=1;startArrow=none;startFill=0;endArrow=classic;endFill=1;" parent="1" source="7WD_b7WuQylbHmAeUIXa-28" target="7WD_b7WuQylbHmAeUIXa-30" edge="1">
                    <mxGeometry relative="1" as="geometry"/>
                </mxCell>
                <mxCell id="7WD_b7WuQylbHmAeUIXa-28" value="&lt;div&gt;Modifica o ficheiro&lt;/div&gt;&lt;div&gt;(renomear, adicionar aos favoritos, partilhar, etc.)&lt;br&gt;&lt;/div&gt;" style="rounded=0;whiteSpace=wrap;html=1;fillColor=#d5e8d4;strokeColor=#82b366;" parent="1" vertex="1">
                    <mxGeometry x="980" y="190" width="120" height="60" as="geometry"/>
                </mxCell>
                <mxCell id="7WD_b7WuQylbHmAeUIXa-29" value="Verifica permissões e modifica o ficheiro" style="edgeStyle=orthogonalEdgeStyle;rounded=0;orthogonalLoop=1;jettySize=auto;html=1;startArrow=none;startFill=0;endArrow=classic;endFill=1;" parent="1" source="7WD_b7WuQylbHmAeUIXa-30" target="7WD_b7WuQylbHmAeUIXa-34" edge="1">
                    <mxGeometry relative="1" as="geometry"/>
                </mxCell>
                <mxCell id="7WD_b7WuQylbHmAeUIXa-30" value="&lt;div&gt;&lt;b&gt;Controller&lt;/b&gt;&lt;/div&gt;&lt;div&gt;Controllers/Drive.php&lt;br&gt;&lt;/div&gt;" style="rounded=0;whiteSpace=wrap;html=1;fillColor=#dae8fc;strokeColor=#6c8ebf;" parent="1" vertex="1">
                    <mxGeometry x="980" y="300" width="120" height="60" as="geometry"/>
                </mxCell>
                <mxCell id="7WD_b7WuQylbHmAeUIXa-31" value="Modifica o ficheiro" style="edgeStyle=orthogonalEdgeStyle;rounded=0;orthogonalLoop=1;jettySize=auto;html=1;startArrow=none;startFill=0;endArrow=classic;endFill=1;" parent="1" source="7WD_b7WuQylbHmAeUIXa-34" target="7WD_b7WuQylbHmAeUIXa-35" edge="1">
                    <mxGeometry relative="1" as="geometry"/>
                </mxCell>
                <mxCell id="7WD_b7WuQylbHmAeUIXa-32" style="edgeStyle=orthogonalEdgeStyle;rounded=0;orthogonalLoop=1;jettySize=auto;html=1;startArrow=none;startFill=0;endArrow=classic;endFill=1;entryX=1;entryY=0.5;entryDx=0;entryDy=0;" parent="1" source="7WD_b7WuQylbHmAeUIXa-34" target="7WD_b7WuQylbHmAeUIXa-28" edge="1">
                    <mxGeometry relative="1" as="geometry">
                        <mxPoint x="1190" y="220" as="targetPoint"/>
                        <Array as="points">
                            <mxPoint x="1160" y="430"/>
                            <mxPoint x="1160" y="220"/>
                        </Array>
                    </mxGeometry>
                </mxCell>
                <mxCell id="7WD_b7WuQylbHmAeUIXa-33" value="&lt;div&gt;Devolve uma notificação de envio&lt;/div&gt;&lt;div&gt;ou um erro&lt;br&gt;&lt;/div&gt;" style="edgeLabel;html=1;align=center;verticalAlign=middle;resizable=0;points=[];" parent="7WD_b7WuQylbHmAeUIXa-32" vertex="1" connectable="0">
                    <mxGeometry x="0.0915" y="-3" relative="1" as="geometry">
                        <mxPoint x="37" y="10" as="offset"/>
                    </mxGeometry>
                </mxCell>
                <mxCell id="7WD_b7WuQylbHmAeUIXa-34" value="&lt;div&gt;&lt;b&gt;Model&lt;/b&gt;&lt;br&gt;&lt;/div&gt;&lt;div&gt;&lt;div&gt;Models/File.php&lt;/div&gt;&lt;div&gt;Models/User.php&lt;/div&gt;&lt;div&gt;Models/Access.php&lt;/div&gt;&lt;/div&gt;" style="rounded=0;whiteSpace=wrap;html=1;fillColor=#dae8fc;strokeColor=#6c8ebf;" parent="1" vertex="1">
                    <mxGeometry x="980" y="400" width="120" height="60" as="geometry"/>
                </mxCell>
                <mxCell id="7WD_b7WuQylbHmAeUIXa-35" value="DB" style="shape=cylinder3;whiteSpace=wrap;html=1;boundedLbl=1;backgroundOutline=1;size=15;" parent="1" vertex="1">
                    <mxGeometry x="1010" y="510" width="60" height="80" as="geometry"/>
                </mxCell>
                <mxCell id="7WD_b7WuQylbHmAeUIXa-36" value="&lt;div&gt;DELETE /drive/files&lt;/div&gt;&lt;div&gt;com o ficheiro selecionado&lt;br&gt;&lt;/div&gt;" style="edgeStyle=orthogonalEdgeStyle;rounded=0;orthogonalLoop=1;jettySize=auto;html=1;startArrow=none;startFill=0;endArrow=classic;endFill=1;" parent="1" source="7WD_b7WuQylbHmAeUIXa-37" target="7WD_b7WuQylbHmAeUIXa-39" edge="1">
                    <mxGeometry relative="1" as="geometry"/>
                </mxCell>
                <mxCell id="7WD_b7WuQylbHmAeUIXa-37" value="&lt;div&gt;Elimina o ficheiro&lt;/div&gt;&lt;div&gt;da &lt;i&gt;drive&lt;/i&gt;&lt;br&gt;&lt;/div&gt;" style="rounded=0;whiteSpace=wrap;html=1;fillColor=#d5e8d4;strokeColor=#82b366;" parent="1" vertex="1">
                    <mxGeometry x="1300" y="190" width="120" height="60" as="geometry"/>
                </mxCell>
                <mxCell id="7WD_b7WuQylbHmAeUIXa-38" value="&lt;div&gt;Verifica permissões e envia o ficheiro&lt;/div&gt;&lt;div&gt;para a reciclagem&lt;br&gt;&lt;/div&gt;" style="edgeStyle=orthogonalEdgeStyle;rounded=0;orthogonalLoop=1;jettySize=auto;html=1;startArrow=none;startFill=0;endArrow=classic;endFill=1;" parent="1" source="7WD_b7WuQylbHmAeUIXa-39" target="7WD_b7WuQylbHmAeUIXa-43" edge="1">
                    <mxGeometry relative="1" as="geometry"/>
                </mxCell>
                <mxCell id="7WD_b7WuQylbHmAeUIXa-39" value="&lt;div&gt;&lt;b&gt;Controller&lt;/b&gt;&lt;/div&gt;&lt;div&gt;Controllers/Drive.php&lt;br&gt;&lt;/div&gt;" style="rounded=0;whiteSpace=wrap;html=1;fillColor=#dae8fc;strokeColor=#6c8ebf;" parent="1" vertex="1">
                    <mxGeometry x="1300" y="300" width="120" height="60" as="geometry"/>
                </mxCell>
                <mxCell id="7WD_b7WuQylbHmAeUIXa-40" value="Marca o ficheiro como reciclado" style="edgeStyle=orthogonalEdgeStyle;rounded=0;orthogonalLoop=1;jettySize=auto;html=1;startArrow=none;startFill=0;endArrow=classic;endFill=1;" parent="1" source="7WD_b7WuQylbHmAeUIXa-43" target="7WD_b7WuQylbHmAeUIXa-44" edge="1">
                    <mxGeometry relative="1" as="geometry"/>
                </mxCell>
                <mxCell id="7WD_b7WuQylbHmAeUIXa-41" style="edgeStyle=orthogonalEdgeStyle;rounded=0;orthogonalLoop=1;jettySize=auto;html=1;startArrow=none;startFill=0;endArrow=classic;endFill=1;entryX=1;entryY=0.5;entryDx=0;entryDy=0;" parent="1" source="7WD_b7WuQylbHmAeUIXa-43" target="7WD_b7WuQylbHmAeUIXa-37" edge="1">
                    <mxGeometry relative="1" as="geometry">
                        <mxPoint x="1510" y="220" as="targetPoint"/>
                        <Array as="points">
                            <mxPoint x="1480" y="430"/>
                            <mxPoint x="1480" y="220"/>
                        </Array>
                    </mxGeometry>
                </mxCell>
                <mxCell id="7WD_b7WuQylbHmAeUIXa-42" value="&lt;div&gt;Devolve uma notificação de envio&lt;/div&gt;&lt;div&gt;ou um erro&lt;br&gt;&lt;/div&gt;" style="edgeLabel;html=1;align=center;verticalAlign=middle;resizable=0;points=[];" parent="7WD_b7WuQylbHmAeUIXa-41" vertex="1" connectable="0">
                    <mxGeometry x="0.0915" y="-3" relative="1" as="geometry">
                        <mxPoint x="37" y="10" as="offset"/>
                    </mxGeometry>
                </mxCell>
                <mxCell id="2" value="" style="edgeStyle=none;html=1;" edge="1" parent="1" source="7WD_b7WuQylbHmAeUIXa-43" target="7WD_b7WuQylbHmAeUIXa-44">
                    <mxGeometry relative="1" as="geometry"/>
                </mxCell>
                <mxCell id="7WD_b7WuQylbHmAeUIXa-43" value="&lt;div&gt;&lt;b&gt;Model&lt;/b&gt;&lt;br&gt;&lt;/div&gt;&lt;div&gt;&lt;div&gt;Models/File.php&lt;/div&gt;&lt;div&gt;Models/User.php&lt;/div&gt;&lt;div&gt;Models/Access.php&lt;/div&gt;&lt;/div&gt;" style="rounded=0;whiteSpace=wrap;html=1;fillColor=#dae8fc;strokeColor=#6c8ebf;" parent="1" vertex="1">
                    <mxGeometry x="1300" y="400" width="120" height="60" as="geometry"/>
                </mxCell>
                <mxCell id="7WD_b7WuQylbHmAeUIXa-44" value="DB" style="shape=cylinder3;whiteSpace=wrap;html=1;boundedLbl=1;backgroundOutline=1;size=15;" parent="1" vertex="1">
                    <mxGeometry x="1330" y="510" width="60" height="80" as="geometry"/>
                </mxCell>
                <mxCell id="7WD_b7WuQylbHmAeUIXa-45" value="&lt;div&gt;POST /drive/trash&lt;/div&gt;&lt;div&gt;com o ficheiro selecionado&lt;br&gt;&lt;/div&gt;" style="edgeStyle=orthogonalEdgeStyle;rounded=0;orthogonalLoop=1;jettySize=auto;html=1;startArrow=none;startFill=0;endArrow=classic;endFill=1;" parent="1" source="7WD_b7WuQylbHmAeUIXa-46" target="7WD_b7WuQylbHmAeUIXa-48" edge="1">
                    <mxGeometry relative="1" as="geometry"/>
                </mxCell>
                <mxCell id="7WD_b7WuQylbHmAeUIXa-46" value="Restaura um ficheiro da reciclagem" style="rounded=0;whiteSpace=wrap;html=1;fillColor=#d5e8d4;strokeColor=#82b366;" parent="1" vertex="1">
                    <mxGeometry x="650" y="630" width="120" height="60" as="geometry"/>
                </mxCell>
                <mxCell id="7WD_b7WuQylbHmAeUIXa-47" value="&lt;div&gt;Verifica permissões e restaura o ficheiro&lt;br&gt;&lt;/div&gt;" style="edgeStyle=orthogonalEdgeStyle;rounded=0;orthogonalLoop=1;jettySize=auto;html=1;startArrow=none;startFill=0;endArrow=classic;endFill=1;" parent="1" source="7WD_b7WuQylbHmAeUIXa-48" target="7WD_b7WuQylbHmAeUIXa-52" edge="1">
                    <mxGeometry relative="1" as="geometry"/>
                </mxCell>
                <mxCell id="7WD_b7WuQylbHmAeUIXa-48" value="&lt;div&gt;&lt;b&gt;Controller&lt;/b&gt;&lt;/div&gt;&lt;div&gt;Controllers/Drive.php&lt;br&gt;&lt;/div&gt;" style="rounded=0;whiteSpace=wrap;html=1;fillColor=#dae8fc;strokeColor=#6c8ebf;" parent="1" vertex="1">
                    <mxGeometry x="650" y="740" width="120" height="60" as="geometry"/>
                </mxCell>
                <mxCell id="7WD_b7WuQylbHmAeUIXa-49" value="Restaura o ficheiro" style="edgeStyle=orthogonalEdgeStyle;rounded=0;orthogonalLoop=1;jettySize=auto;html=1;startArrow=none;startFill=0;endArrow=classic;endFill=1;" parent="1" source="7WD_b7WuQylbHmAeUIXa-52" target="7WD_b7WuQylbHmAeUIXa-53" edge="1">
                    <mxGeometry relative="1" as="geometry"/>
                </mxCell>
                <mxCell id="7WD_b7WuQylbHmAeUIXa-50" style="edgeStyle=orthogonalEdgeStyle;rounded=0;orthogonalLoop=1;jettySize=auto;html=1;startArrow=none;startFill=0;endArrow=classic;endFill=1;entryX=1;entryY=0.5;entryDx=0;entryDy=0;" parent="1" source="7WD_b7WuQylbHmAeUIXa-52" target="7WD_b7WuQylbHmAeUIXa-46" edge="1">
                    <mxGeometry relative="1" as="geometry">
                        <mxPoint x="860" y="660" as="targetPoint"/>
                        <Array as="points">
                            <mxPoint x="830" y="870"/>
                            <mxPoint x="830" y="660"/>
                        </Array>
                    </mxGeometry>
                </mxCell>
                <mxCell id="7WD_b7WuQylbHmAeUIXa-51" value="&lt;div&gt;Devolve uma notificação de envio&lt;/div&gt;&lt;div&gt;ou um erro&lt;br&gt;&lt;/div&gt;" style="edgeLabel;html=1;align=center;verticalAlign=middle;resizable=0;points=[];" parent="7WD_b7WuQylbHmAeUIXa-50" vertex="1" connectable="0">
                    <mxGeometry x="0.0915" y="-3" relative="1" as="geometry">
                        <mxPoint x="37" y="10" as="offset"/>
                    </mxGeometry>
                </mxCell>
                <mxCell id="7WD_b7WuQylbHmAeUIXa-52" value="&lt;div&gt;&lt;b&gt;Model&lt;/b&gt;&lt;br&gt;&lt;/div&gt;&lt;div&gt;&lt;div&gt;Models/File.php&lt;/div&gt;&lt;div&gt;Models/User.php&lt;/div&gt;&lt;div&gt;Models/Access.php&lt;/div&gt;&lt;/div&gt;" style="rounded=0;whiteSpace=wrap;html=1;fillColor=#dae8fc;strokeColor=#6c8ebf;" parent="1" vertex="1">
                    <mxGeometry x="650" y="840" width="120" height="60" as="geometry"/>
                </mxCell>
                <mxCell id="7WD_b7WuQylbHmAeUIXa-53" value="DB" style="shape=cylinder3;whiteSpace=wrap;html=1;boundedLbl=1;backgroundOutline=1;size=15;" parent="1" vertex="1">
                    <mxGeometry x="680" y="950" width="60" height="80" as="geometry"/>
                </mxCell>
                <mxCell id="7WD_b7WuQylbHmAeUIXa-54" value="&lt;div&gt;DELETE /drive/trash&lt;/div&gt;&lt;div&gt;com o ficheiro selecionado&lt;br&gt;&lt;/div&gt;" style="edgeStyle=orthogonalEdgeStyle;rounded=0;orthogonalLoop=1;jettySize=auto;html=1;startArrow=none;startFill=0;endArrow=classic;endFill=1;" parent="1" source="7WD_b7WuQylbHmAeUIXa-55" target="7WD_b7WuQylbHmAeUIXa-57" edge="1">
                    <mxGeometry relative="1" as="geometry"/>
                </mxCell>
                <mxCell id="7WD_b7WuQylbHmAeUIXa-55" value="&lt;div&gt;Elimina o ficheiro&lt;/div&gt;&lt;div&gt;da reciclagem&lt;br&gt;&lt;/div&gt;" style="rounded=0;whiteSpace=wrap;html=1;fillColor=#d5e8d4;strokeColor=#82b366;" parent="1" vertex="1">
                    <mxGeometry x="980" y="630" width="120" height="60" as="geometry"/>
                </mxCell>
                <mxCell id="7WD_b7WuQylbHmAeUIXa-56" value="&lt;div&gt;Verifica permissões e elimina o&lt;/div&gt;&lt;div&gt;ficheiro permanentemente&lt;br&gt;&lt;/div&gt;" style="edgeStyle=orthogonalEdgeStyle;rounded=0;orthogonalLoop=1;jettySize=auto;html=1;startArrow=none;startFill=0;endArrow=classic;endFill=1;" parent="1" source="7WD_b7WuQylbHmAeUIXa-57" target="7WD_b7WuQylbHmAeUIXa-61" edge="1">
                    <mxGeometry relative="1" as="geometry"/>
                </mxCell>
                <mxCell id="7WD_b7WuQylbHmAeUIXa-57" value="&lt;div&gt;&lt;b&gt;Controller&lt;/b&gt;&lt;/div&gt;&lt;div&gt;Controllers/Drive.php&lt;br&gt;&lt;/div&gt;" style="rounded=0;whiteSpace=wrap;html=1;fillColor=#dae8fc;strokeColor=#6c8ebf;" parent="1" vertex="1">
                    <mxGeometry x="980" y="740" width="120" height="60" as="geometry"/>
                </mxCell>
                <mxCell id="7WD_b7WuQylbHmAeUIXa-58" value="Elimina o ficheiro" style="edgeStyle=orthogonalEdgeStyle;rounded=0;orthogonalLoop=1;jettySize=auto;html=1;startArrow=none;startFill=0;endArrow=classic;endFill=1;" parent="1" source="7WD_b7WuQylbHmAeUIXa-61" target="7WD_b7WuQylbHmAeUIXa-62" edge="1">
                    <mxGeometry relative="1" as="geometry"/>
                </mxCell>
                <mxCell id="7WD_b7WuQylbHmAeUIXa-59" style="edgeStyle=orthogonalEdgeStyle;rounded=0;orthogonalLoop=1;jettySize=auto;html=1;startArrow=none;startFill=0;endArrow=classic;endFill=1;entryX=1;entryY=0.5;entryDx=0;entryDy=0;" parent="1" source="7WD_b7WuQylbHmAeUIXa-61" target="7WD_b7WuQylbHmAeUIXa-55" edge="1">
                    <mxGeometry relative="1" as="geometry">
                        <mxPoint x="1190" y="660" as="targetPoint"/>
                        <Array as="points">
                            <mxPoint x="1160" y="870"/>
                            <mxPoint x="1160" y="660"/>
                        </Array>
                    </mxGeometry>
                </mxCell>
                <mxCell id="7WD_b7WuQylbHmAeUIXa-60" value="&lt;div&gt;Devolve uma notificação de envio&lt;/div&gt;&lt;div&gt;ou um erro&lt;br&gt;&lt;/div&gt;" style="edgeLabel;html=1;align=center;verticalAlign=middle;resizable=0;points=[];" parent="7WD_b7WuQylbHmAeUIXa-59" vertex="1" connectable="0">
                    <mxGeometry x="0.0915" y="-3" relative="1" as="geometry">
                        <mxPoint x="37" y="10" as="offset"/>
                    </mxGeometry>
                </mxCell>
                <mxCell id="7WD_b7WuQylbHmAeUIXa-61" value="&lt;div&gt;&lt;b&gt;Model&lt;/b&gt;&lt;br&gt;&lt;/div&gt;&lt;div&gt;&lt;div&gt;Models/File.php&lt;/div&gt;&lt;div&gt;Models/User.php&lt;/div&gt;&lt;div&gt;Models/Access.php&lt;/div&gt;&lt;/div&gt;" style="rounded=0;whiteSpace=wrap;html=1;fillColor=#dae8fc;strokeColor=#6c8ebf;" parent="1" vertex="1">
                    <mxGeometry x="980" y="840" width="120" height="60" as="geometry"/>
                </mxCell>
                <mxCell id="7WD_b7WuQylbHmAeUIXa-62" value="DB" style="shape=cylinder3;whiteSpace=wrap;html=1;boundedLbl=1;backgroundOutline=1;size=15;" parent="1" vertex="1">
                    <mxGeometry x="1010" y="950" width="60" height="80" as="geometry"/>
                </mxCell>
            </root>
        </mxGraphModel>
    </diagram>
</mxfile>